<?xml version="1.0" encoding="utf-8"?>
<!-- Generator: Adobe Illustrator 24.0.2, SVG Export Plug-In . SVG Version: 6.00 Build 0)  -->
<svg version="1.1" id="Warstwa_2" xmlns="http://www.w3.org/2000/svg" xmlns:xlink="http://www.w3.org/1999/xlink" x="0px" y="0px"
	 viewBox="0 0 2394.7028809 2033.1279297" style="enable-background:new 0 0 2394.7028809 2033.1279297;" xml:space="preserve">
<style type="text/css">
	.st0{fill:#7D4E3D;stroke:#010202;stroke-width:3.2289405;stroke-miterlimit:10;}
	.st1{fill:#BF855C;stroke:#010202;stroke-width:3.2289405;stroke-miterlimit:10;}
	.st2{fill:#EFE7DD;stroke:#010202;stroke-width:3.2289405;stroke-miterlimit:10;}
	.st3{fill:#B1D1ED;stroke:#010202;stroke-width:3.2289405;stroke-miterlimit:10;}
	.st4{fill:none;stroke:#010202;stroke-width:3.2289405;stroke-miterlimit:10;}
</style>
<g>
	<g>
		<polygon class="st0" points="909.987915,1442.0426025 959.4020386,1442.0426025 959.4020386,254.7497864 
			1297.8549805,165.3982239 909.987915,76.7235565 		"/>
		<g>
			<rect x="545.0189209" y="755.3205566" class="st1" width="811.4988403" height="61.3916512"/>
			<path class="st2" d="M1330.4985352,816.6715088H593.5777588c0,0,183.7852173,188.3231812-22.6895752,505.9766846
				c0,0,478.8200684-110.2640381,745.9963379,25.876709
				C1316.8845215,1348.5249023,1550.8763428,1045.5046387,1330.4985352,816.6715088z"/>
		</g>
		<g>
			<rect x="656.4021606" y="314.8948669" class="st1" width="617.3610229" height="41.9483185"/>
			<path class="st2" d="M679.6030273,356.8432007h564.8039551c0,0,169.0960693,222.010498-47.1628418,394.5574951
				c0,0-156.442627-82.8225708-506.1380005,0C691.1061401,751.4006958,877.4569702,545.4946289,679.6030273,356.8432007z"/>
		</g>
	</g>
	<g>
		<polygon class="st1" points="252.0502625,1474.0834961 281.9469604,1219.4078369 572.0557251,1219.4078369 
			622.9908447,1441.972168 1079.1923828,1441.972168 1111.3037109,1588.1337891 252.0502625,1588.1337891 		"/>
		<g>
			<g>
				<circle class="st0" cx="839.4488525" cy="1517.2429199" r="56.2739334"/>
				<circle class="st3" cx="839.4488525" cy="1517.2429199" r="40.4572449"/>
			</g>
			<g>
				<circle class="st0" cx="702.3959351" cy="1517.2429199" r="56.2739334"/>
				<circle class="st3" cx="702.3959351" cy="1517.2429199" r="40.4572449"/>
			</g>
		</g>
	</g>
	<g>
		<polygon class="st0" points="1695.7510986,1316.2192383 1754.7814941,1316.2192383 1754.7814941,718.4020996 
			2071.3991699,631.4663696 1695.7510986,558.4832764 		"/>
		<g>
			<rect x="1418.3765869" y="813.7830811" class="st1" width="571.2897339" height="46.1863594"/>
			<path class="st2" d="M1443.5649414,859.9694214h522.8843994
				c162.3306885,183.539856,17.9460449,361.3694458,17.9460449,361.3694458
				c-276.5332031-54.6540527-562.8552246,18.7618408-562.8552246,18.7618408S1599.369751,1058.1923828,1443.5649414,859.9694214z"/>
		</g>
	</g>
	<g>
		<g>
			<path class="st1" d="M196.5031738,1530.7386475l124.6222534,413.6776123h1540.9174805
				c-0.0010986-0.0164795,131.9453125-120.3518066,85.036377-302.0257568l153.9453125-254.6743164l-598.1868896-0.4346924
				l-49.6853027,250.6679688l-1055.7875977-1.4234619l-16.3208923-105.7873535H196.5031738z"/>
			<line class="st4" x1="1482.0994873" y1="1495.4810791" x2="2035.8830566" y2="1495.4810791"/>
			<line class="st4" x1="218.572876" y1="1603.9979248" x2="1970.2869873" y2="1603.9979248"/>
			<line class="st4" x1="248.0409698" y1="1701.8157959" x2="1956.5953369" y2="1701.8157959"/>
			<line class="st4" x1="282.5738831" y1="1816.446167" x2="1941.3793945" y2="1816.446167"/>
		</g>
		<polygon class="st0" points="132.5871735,1472.8787842 435.5003357,1472.8787842 450.8161621,1588.5983887 
			1364.6610107,1588.5983887 1419.1173096,1314.6151123 2218.9440918,1314.6151123 2203.628418,1387.7907715 
			1502.8377686,1387.2814941 1453.1524658,1637.9494629 397.3649292,1636.526001 381.0440369,1530.7386475 
			154.7100372,1530.7386475 		"/>
	</g>
</g>
</svg>
